<svg width="162" height="19" fill="none" xmlns="http://www.w3.org/2000/svg"><path d="M.801 18.023V.568H8.08c1.306 0 2.4.185 3.28.554.887.37 1.552.886 1.995 1.551.449.665.673 1.435.673 2.31 0 .665-.139 1.258-.417 1.781a3.674 3.674 0 0 1-1.15 1.287c-.49.341-1.055.58-1.697.716v.17a4.236 4.236 0 0 1 1.952.571c.602.347 1.085.83 1.449 1.45.363.613.545 1.34.545 2.181 0 .938-.238 1.776-.716 2.514-.477.733-1.167 1.313-2.07 1.739-.904.42-2 .63-3.29.63H.8Zm4.219-3.4h2.608c.915 0 1.588-.174 2.02-.52.437-.347.656-.83.656-1.45 0-.449-.105-.835-.315-1.159a2.03 2.03 0 0 0-.895-.758c-.387-.182-.85-.273-1.39-.273H5.02v4.16Zm0-6.879h2.335c.46 0 .87-.076 1.227-.23.358-.153.637-.375.836-.665.204-.29.306-.639.306-1.048 0-.585-.207-1.045-.622-1.38-.415-.336-.974-.503-1.679-.503H5.02v3.826ZM20.514 18.023H15.98L21.87.568h5.616l5.889 17.455h-4.534l-4.1-13.057h-.136l-4.09 13.057Zm-.605-6.87h9.477v3.205H19.91v-3.205ZM41.706 18.023h-6.452V.568h6.443c1.779 0 3.31.35 4.594 1.048a7.165 7.165 0 0 1 2.983 3c.699 1.302 1.048 2.858 1.048 4.67 0 1.819-.349 3.382-1.048 4.688a7.165 7.165 0 0 1-2.974 3.009c-1.29.693-2.821 1.04-4.594 1.04Zm-2.233-3.597h2.071c.977 0 1.804-.165 2.48-.494.682-.335 1.196-.878 1.543-1.628.352-.756.528-1.761.528-3.017s-.176-2.256-.528-3c-.352-.75-.872-1.29-1.56-1.62-.682-.335-1.523-.502-2.523-.502h-2.011v10.261ZM51.418 3.994V.568H66.17v3.426h-5.293v14.029h-4.16V3.994h-5.3ZM68.171 18.023v-2.404l8.48-11.625H68.18V.568h13.806v2.404l-8.48 11.625h8.472v3.426H68.171ZM89.723.568h5.224l4.432 10.807h.205L104.016.568h5.224v17.455h-4.108V7.3h-.145l-4.193 10.61h-2.625l-4.193-10.67h-.145v10.782h-4.108V.568ZM115.647 18.023h-4.534L117.002.568h5.617l5.889 17.455h-4.534l-4.1-13.057h-.136l-4.091 13.057Zm-.605-6.87h9.477v3.205h-9.477v-3.205ZM130.387 18.023V.568h7.21c1.307 0 2.435.236 3.384.708.954.465 1.69 1.136 2.207 2.01.517.87.776 1.901.776 3.095 0 1.21-.264 2.238-.793 3.085-.528.84-1.278 1.483-2.25 1.926-.971.438-2.122.656-3.452.656h-4.559V8.724h3.775c.637 0 1.168-.082 1.594-.247.432-.17.759-.426.98-.767.222-.346.333-.79.333-1.33s-.111-.985-.333-1.337c-.221-.358-.548-.625-.98-.802-.432-.181-.963-.272-1.594-.272h-2.079v14.054h-4.219Zm9.827-7.978 4.346 7.978h-4.602l-4.261-7.978h4.517ZM156.837.568h4.211v11.259c0 1.3-.31 2.434-.929 3.4-.62.96-1.483 1.705-2.591 2.233-1.108.523-2.395.784-3.861.784-1.483 0-2.779-.261-3.886-.784-1.108-.528-1.969-1.273-2.583-2.233-.613-.966-.92-2.1-.92-3.4V.568h4.218V11.46c0 .602.131 1.14.392 1.611.268.472.64.84 1.117 1.108.477.267 1.031.4 1.662.4s1.182-.133 1.653-.4c.478-.267.85-.636 1.117-1.108.267-.472.4-1.009.4-1.61V.567Z" fill="#fff"/></svg>