<svg width="474" height="37" fill="none" xmlns="http://www.w3.org/2000/svg"><path d="M11.37 36.781V.417h2.33v36.364h-2.33Zm6.179-24.36c-.114-1.146-.602-2.037-1.463-2.671-.862-.635-2.032-.952-3.509-.952-1.004 0-1.851.142-2.543.426-.69.275-1.221.658-1.59 1.15a2.77 2.77 0 0 0-.54 1.677c-.02.52.09.975.326 1.364a3.41 3.41 0 0 0 1.009 1.008c.426.275.919.516 1.477.725.559.199 1.156.369 1.79.511l2.614.625c1.269.284 2.433.663 3.494 1.136 1.06.474 1.98 1.056 2.756 1.747a7.263 7.263 0 0 1 1.804 2.444c.435.937.658 2.012.667 3.224-.01 1.78-.464 3.324-1.363 4.63-.89 1.298-2.178 2.307-3.864 3.026-1.676.71-3.698 1.066-6.065 1.066-2.349 0-4.394-.36-6.137-1.08-1.733-.72-3.087-1.785-4.062-3.196-.966-1.42-1.473-3.177-1.52-5.27h5.952c.066.976.345 1.79.838 2.443.502.644 1.17 1.132 2.003 1.463.842.322 1.794.483 2.855.483 1.041 0 1.946-.151 2.713-.454.776-.303 1.377-.725 1.804-1.264.426-.54.639-1.16.639-1.861 0-.654-.194-1.203-.582-1.648-.38-.445-.938-.824-1.677-1.136-.729-.313-1.624-.597-2.684-.852l-3.168-.796c-2.453-.596-4.39-1.53-5.81-2.798-1.42-1.27-2.126-2.978-2.116-5.128-.01-1.761.46-3.3 1.406-4.617.957-1.316 2.268-2.343 3.935-3.082 1.667-.739 3.56-1.108 5.682-1.108 2.159 0 4.043.37 5.653 1.108 1.62.739 2.879 1.766 3.779 3.082.9 1.317 1.363 2.841 1.392 4.574h-5.895ZM27.978 33.145V4.054h11.648c2.14 0 3.925.317 5.355.952 1.43.634 2.505 1.515 3.225 2.642.72 1.117 1.08 2.405 1.08 3.863 0 1.137-.228 2.136-.683 2.997a5.884 5.884 0 0 1-1.875 2.103c-.786.54-1.685.923-2.699 1.15v.284a6.516 6.516 0 0 1 3.111.938c.976.578 1.766 1.387 2.372 2.429.606 1.032.91 2.263.91 3.693 0 1.543-.384 2.921-1.151 4.133-.758 1.203-1.88 2.155-3.367 2.856-1.486.7-3.319 1.05-5.497 1.05H27.978Zm6.15-5.029h5.015c1.714 0 2.964-.326 3.75-.98.786-.663 1.18-1.543 1.18-2.642 0-.805-.195-1.515-.583-2.13-.389-.616-.943-1.099-1.662-1.45-.71-.35-1.558-.525-2.543-.525H34.13v7.727Zm0-11.889h4.56c.843 0 1.591-.147 2.245-.44.663-.303 1.184-.73 1.562-1.279.389-.549.583-1.207.583-1.974 0-1.051-.374-1.899-1.122-2.543-.739-.644-1.79-.966-3.154-.966H34.13v7.202ZM59.438 33.145h-6.591L62.89 4.054h7.926l10.028 29.09h-6.59l-7.288-22.442h-.227l-7.301 22.443Zm-.412-11.435h15.568v4.801H59.026v-4.8ZM94.658 33.145H84.345V4.054h10.398c2.926 0 5.445.582 7.557 1.747 2.112 1.155 3.736 2.817 4.872 4.986 1.146 2.168 1.719 4.763 1.719 7.784 0 3.03-.573 5.634-1.719 7.812-1.136 2.178-2.77 3.85-4.9 5.015-2.122 1.164-4.66 1.747-7.614 1.747Zm-4.162-5.27h3.906c1.819 0 3.348-.322 4.588-.966 1.25-.653 2.188-1.662 2.813-3.026.634-1.373.952-3.143.952-5.312 0-2.15-.318-3.906-.952-5.27-.625-1.364-1.558-2.367-2.798-3.011-1.24-.644-2.77-.966-4.588-.966h-3.92v18.55ZM111.011 9.125V4.054h23.892v5.07h-8.906v24.02h-6.08V9.125h-8.906ZM138.525 33.145v-3.65l14.517-20.37h-14.545V4.054h22.273v3.65l-14.532 20.37h14.56v5.07h-22.273ZM180.926 4.054v29.09h-6.151V4.055h6.151ZM201.767 12.42c-.113-1.146-.601-2.036-1.463-2.67-.861-.635-2.031-.952-3.508-.952-1.004 0-1.852.142-2.543.426-.691.275-1.221.658-1.591 1.15a2.767 2.767 0 0 0-.539 1.677c-.019.52.089.975.326 1.364.246.388.583.724 1.009 1.008.426.275.918.516 1.477.725.559.199 1.155.369 1.79.511l2.613.625a18.45 18.45 0 0 1 3.495 1.136c1.06.474 1.979 1.056 2.755 1.747a7.254 7.254 0 0 1 1.804 2.444c.436.937.659 2.012.668 3.224-.009 1.78-.464 3.324-1.364 4.63-.89 1.298-2.178 2.307-3.863 3.026-1.676.71-3.698 1.066-6.066 1.066-2.348 0-4.394-.36-6.136-1.08-1.733-.72-3.087-1.785-4.062-3.196-.966-1.42-1.473-3.177-1.52-5.27H191c.067.976.346 1.79.838 2.443.502.644 1.17 1.132 2.003 1.463.843.322 1.795.483 2.855.483 1.042 0 1.946-.151 2.713-.454.777-.303 1.378-.725 1.804-1.264.427-.54.64-1.16.64-1.861 0-.654-.194-1.203-.583-1.648-.379-.445-.937-.824-1.676-1.136-.729-.313-1.624-.597-2.685-.852l-3.167-.796c-2.453-.596-4.389-1.53-5.81-2.798-1.42-1.27-2.126-2.978-2.116-5.128-.01-1.761.459-3.3 1.406-4.617.956-1.316 2.268-2.343 3.935-3.082 1.666-.739 3.56-1.108 5.681-1.108 2.16 0 4.044.37 5.654 1.108 1.619.739 2.879 1.766 3.778 3.082.9 1.317 1.364 2.841 1.392 4.574h-5.895ZM221.455 33.145V4.054h11.648c2.14 0 3.925.317 5.355.952 1.43.634 2.504 1.515 3.224 2.642.72 1.117 1.08 2.405 1.08 3.863 0 1.137-.228 2.136-.682 2.997a5.893 5.893 0 0 1-1.875 2.103c-.786.54-1.686.923-2.699 1.15v.284a6.517 6.517 0 0 1 3.111.938c.975.578 1.766 1.387 2.372 2.429.606 1.032.909 2.263.909 3.693 0 1.543-.383 2.921-1.15 4.133-.758 1.203-1.88 2.155-3.367 2.856-1.487.7-3.319 1.05-5.497 1.05h-12.429Zm6.15-5.029h5.015c1.714 0 2.964-.326 3.75-.98.786-.663 1.179-1.543 1.179-2.642 0-.805-.194-1.515-.583-2.13-.388-.616-.942-1.099-1.662-1.45-.71-.35-1.557-.525-2.542-.525h-5.157v7.727Zm0-11.889h4.56c.843 0 1.591-.147 2.244-.44.663-.303 1.184-.73 1.563-1.279.388-.549.582-1.207.582-1.974 0-1.051-.374-1.899-1.122-2.543-.738-.644-1.79-.966-3.153-.966h-4.674v7.202ZM252.914 33.145h-6.59l10.042-29.091h7.926l10.029 29.09h-6.591l-7.287-22.442h-.227l-7.302 22.443Zm-.412-11.435h15.569v4.801h-15.569v-4.8ZM302.123 14.239h-6.222c-.114-.805-.346-1.52-.696-2.145a5.44 5.44 0 0 0-1.35-1.62 5.93 5.93 0 0 0-1.903-1.022 7.279 7.279 0 0 0-2.315-.356c-1.506 0-2.817.375-3.935 1.123-1.117.738-1.984 1.818-2.599 3.238-.616 1.411-.924 3.125-.924 5.142 0 2.074.308 3.817.924 5.228.625 1.41 1.496 2.476 2.613 3.196 1.118.72 2.41 1.08 3.878 1.08.824 0 1.586-.11 2.287-.328a6.008 6.008 0 0 0 1.889-.951 5.475 5.475 0 0 0 1.364-1.549 6.037 6.037 0 0 0 .767-2.073l6.222.028a11.255 11.255 0 0 1-1.208 3.864 11.594 11.594 0 0 1-2.571 3.31c-1.07.965-2.348 1.732-3.835 2.3-1.477.56-3.149.838-5.014.838-2.595 0-4.915-.587-6.961-1.76-2.036-1.175-3.645-2.875-4.829-5.1-1.174-2.226-1.761-4.92-1.761-8.083 0-3.172.596-5.87 1.789-8.096s2.813-3.92 4.858-5.086c2.046-1.174 4.347-1.76 6.904-1.76 1.685 0 3.248.236 4.687.71 1.449.473 2.732 1.164 3.85 2.073 1.117.9 2.026 2.003 2.727 3.31.71 1.307 1.165 2.803 1.364 4.489ZM306.533 33.145V4.054h6.151V16.88h.383l10.469-12.827h7.372l-10.795 13.025 10.923 16.066h-7.358l-7.969-11.96-3.025 3.693v8.267h-6.151ZM343.369 33.145V4.054h11.648c2.14 0 3.925.317 5.355.952 1.43.634 2.505 1.515 3.224 2.642.72 1.117 1.08 2.405 1.08 3.863 0 1.137-.227 2.136-.682 2.997a5.893 5.893 0 0 1-1.875 2.103c-.786.54-1.686.923-2.699 1.15v.284a6.517 6.517 0 0 1 3.111.938c.975.578 1.766 1.387 2.372 2.429.606 1.032.909 2.263.909 3.693 0 1.543-.383 2.921-1.15 4.133-.758 1.203-1.88 2.155-3.367 2.856-1.487.7-3.319 1.05-5.497 1.05h-12.429Zm6.151-5.029h5.014c1.714 0 2.964-.326 3.75-.98.786-.663 1.179-1.543 1.179-2.642 0-.805-.194-1.515-.583-2.13-.388-.616-.942-1.099-1.662-1.45-.71-.35-1.557-.525-2.542-.525h-5.156v7.727Zm0-11.889h4.559c.843 0 1.591-.147 2.245-.44.662-.303 1.183-.73 1.562-1.279.388-.549.582-1.207.582-1.974 0-1.051-.374-1.899-1.122-2.543-.738-.644-1.79-.966-3.153-.966h-4.673v7.202ZM375.965 4.054v29.09h-6.151V4.055h6.151ZM379.917 9.125V4.054h23.892v5.07h-8.906v24.02h-6.079V9.125h-8.907ZM432.083 14.239h-6.221c-.114-.805-.346-1.52-.696-2.145a5.456 5.456 0 0 0-1.35-1.62 5.93 5.93 0 0 0-1.903-1.022 7.279 7.279 0 0 0-2.315-.356c-1.506 0-2.818.375-3.935 1.123-1.117.738-1.984 1.818-2.599 3.238-.616 1.411-.924 3.125-.924 5.142 0 2.074.308 3.817.924 5.228.625 1.41 1.496 2.476 2.613 3.196 1.118.72 2.41 1.08 3.878 1.08.824 0 1.586-.11 2.287-.328a6.008 6.008 0 0 0 1.889-.951 5.49 5.49 0 0 0 1.364-1.549 6.037 6.037 0 0 0 .767-2.073l6.221.028a11.253 11.253 0 0 1-1.207 3.864 11.594 11.594 0 0 1-2.571 3.31c-1.07.965-2.348 1.732-3.835 2.3-1.477.56-3.149.838-5.014.838-2.595 0-4.915-.587-6.961-1.76-2.036-1.175-3.645-2.875-4.829-5.1-1.174-2.226-1.762-4.92-1.762-8.083 0-3.172.597-5.87 1.79-8.096s2.813-3.92 4.858-5.086c2.046-1.174 4.347-1.76 6.904-1.76 1.685 0 3.248.236 4.687.71 1.449.473 2.732 1.164 3.85 2.073 1.117.9 2.026 2.003 2.727 3.31.71 1.307 1.165 2.803 1.363 4.489ZM436.494 33.145V4.054h6.151v12.003h12.485V4.054h6.137v29.09h-6.137V21.129h-12.485v12.017h-6.151ZM469.761 33.514a3.32 3.32 0 0 1-2.415-.994 3.317 3.317 0 0 1-.994-2.415c0-.928.331-1.724.994-2.386a3.32 3.32 0 0 1 2.415-.995c.909 0 1.705.332 2.386.995.682.662 1.023 1.458 1.023 2.386 0 .625-.161 1.198-.483 1.719a3.663 3.663 0 0 1-1.236 1.235 3.25 3.25 0 0 1-1.69.455Z" fill="#fff"/></svg>