<svg width="161" height="19" fill="none" xmlns="http://www.w3.org/2000/svg"><path d="M0 18.116V.662h7.278c1.307 0 2.401.185 3.282.554.886.37 1.55.886 1.994 1.551.449.665.673 1.435.673 2.31 0 .664-.139 1.258-.417 1.78a3.676 3.676 0 0 1-1.15 1.288c-.49.34-1.055.58-1.697.716v.17a4.236 4.236 0 0 1 1.952.571c.602.347 1.085.83 1.449 1.45.363.613.545 1.34.545 2.18 0 .938-.239 1.777-.716 2.515-.477.733-1.167 1.313-2.07 1.739-.904.42-2 .63-3.29.63H0Zm4.219-3.4h2.608c.914 0 1.588-.173 2.02-.52.437-.347.656-.83.656-1.449 0-.449-.105-.835-.316-1.159a2.029 2.029 0 0 0-.894-.758c-.387-.182-.85-.273-1.39-.273H4.22v4.159Zm0-6.878h2.335c.46 0 .87-.077 1.227-.23.358-.154.637-.375.835-.665.205-.29.307-.64.307-1.048 0-.585-.207-1.046-.622-1.38-.415-.336-.974-.504-1.679-.504H4.22v3.827ZM19.713 18.116H15.18L21.069.662h5.616l5.889 17.454H28.04L23.94 5.06h-.136l-4.09 13.056Zm-.605-6.869h9.477v3.205h-9.477v-3.205ZM40.905 18.116h-6.452V.662h6.443c1.779 0 3.31.35 4.594 1.048a7.165 7.165 0 0 1 2.983 3c.699 1.301 1.048 2.858 1.048 4.67 0 1.819-.35 3.381-1.048 4.688a7.164 7.164 0 0 1-2.974 3.009c-1.29.693-2.821 1.04-4.594 1.04Zm-2.233-3.596h2.07c.978 0 1.805-.165 2.481-.495.682-.335 1.196-.877 1.543-1.627.352-.756.528-1.762.528-3.017 0-1.256-.176-2.256-.528-3-.353-.75-.872-1.29-1.56-1.62-.682-.335-1.523-.503-2.523-.503h-2.011V14.52ZM50.617 4.088V.662h14.752v3.426h-5.292v14.028h-4.16V4.088h-5.3ZM67.37 18.116v-2.403l8.48-11.625H67.38V.662h13.806v2.403l-8.48 11.625h8.472v3.426H67.37ZM88.922.662h5.224l4.432 10.807h.205L103.214.662h5.225v17.454h-4.108V7.395h-.145l-4.193 10.61h-2.625l-4.193-10.67h-.145v10.781h-4.108V.662ZM114.846 18.116h-4.534L116.201.662h5.616l5.89 17.454h-4.534l-4.1-13.056h-.136l-4.091 13.056Zm-.605-6.869h9.477v3.205h-9.477v-3.205ZM129.586 18.116V.662h7.21c1.307 0 2.435.236 3.384.707.954.466 1.69 1.137 2.207 2.012.517.869.776 1.9.776 3.093 0 1.21-.265 2.239-.793 3.086-.528.84-1.278 1.482-2.25 1.926-.972.437-2.122.656-3.452.656h-4.559V8.818h3.775c.637 0 1.168-.082 1.594-.247.432-.17.758-.426.98-.767.222-.347.332-.79.332-1.33s-.11-.985-.332-1.338c-.222-.358-.548-.625-.98-.8-.432-.183-.963-.274-1.594-.274h-2.079v14.054h-4.219Zm9.827-7.977 4.346 7.977h-4.602l-4.261-7.977h4.517ZM156.036.662h4.21V11.92c0 1.302-.309 2.435-.929 3.401-.619.96-1.482 1.705-2.59 2.233-1.108.523-2.395.784-3.861.784-1.483 0-2.779-.261-3.887-.784-1.108-.528-1.968-1.273-2.582-2.233-.614-.966-.92-2.1-.92-3.4V.66h4.218v10.893c0 .602.131 1.14.392 1.61.267.472.64.842 1.117 1.109s1.031.4 1.662.4c.63 0 1.182-.133 1.653-.4a2.87 2.87 0 0 0 1.117-1.108c.267-.472.4-1.009.4-1.611V.662Z" fill="#fff"/></svg>