<svg width="576" height="66" fill="none" xmlns="http://www.w3.org/2000/svg"><path d="M48.763 48.124c0 3.226-.822 6.118-2.465 8.675-1.644 2.496-3.866 4.474-6.667 5.936-2.74 1.4-5.753 2.1-9.04 2.1H0V0h31.23c3.044 0 5.662.822 7.854 2.466 2.252 1.582 3.956 3.652 5.113 6.21a17.692 17.692 0 0 1 1.827 7.852c0 3.227-.822 6.21-2.466 8.95-1.644 2.739-3.927 4.778-6.849 6.118 3.714 1.095 6.636 3.135 8.767 6.118 2.191 2.983 3.287 6.453 3.287 10.41Zm-6.392-1.096c0-2.191-.487-4.2-1.461-6.027-.974-1.887-2.313-3.409-4.018-4.566C35.248 35.28 33.36 34.7 31.23 34.7H6.392v24.564h24.2c2.19 0 4.17-.578 5.935-1.735a12.856 12.856 0 0 0 4.2-4.474c1.096-1.887 1.644-3.896 1.644-6.027ZM6.392 5.57v23.925h22.281c2.131 0 4.018-.548 5.662-1.643 1.644-1.157 2.953-2.649 3.927-4.475a12.236 12.236 0 0 0 1.46-5.844c0-2.192-.456-4.17-1.369-5.936-.913-1.826-2.161-3.287-3.744-4.383-1.583-1.096-3.379-1.644-5.388-1.644H6.392ZM79.57 0h5.388l26.938 64.835h-6.757l-8.401-20.272h-29.13l-8.31 20.272h-6.849L79.57 0Zm15.707 39.54L82.219 7.488 68.978 39.54h26.299ZM121.191 64.835V0h22.007c6.879 0 12.602 1.461 17.167 4.383 4.627 2.861 8.097 6.758 10.411 11.689 2.313 4.87 3.47 10.288 3.47 16.254 0 6.575-1.279 12.297-3.836 17.168-2.496 4.87-6.087 8.644-10.775 11.323-4.627 2.678-10.106 4.018-16.437 4.018h-22.007Zm46.662-32.509c0-5.175-.974-9.77-2.922-13.789-1.887-4.018-4.657-7.153-8.31-9.405-3.652-2.314-8.127-3.47-13.423-3.47h-15.615v53.511h15.615c5.357 0 9.862-1.187 13.515-3.561 3.652-2.374 6.422-5.57 8.31-9.588 1.887-4.08 2.83-8.645 2.83-13.698ZM230.44 5.662h-23.103v59.173h-6.392V5.662h-23.103V0h52.598v5.662ZM234.856 59.812l44.105-54.15h-43.375V0h50.772v5.022L242.8 59.173h43.467v5.662h-51.411v-5.023ZM378.295 64.835V12.054l-23.469 41.001h-4.018l-23.559-41.001v52.78h-6.393V0h6.575l25.295 44.38L378.203 0h6.484v64.835h-6.392ZM421.026 0h5.388l26.939 64.835h-6.758l-8.401-20.272h-29.13l-8.31 20.272h-6.849L421.026 0Zm15.707 39.54L423.675 7.488 410.434 39.54h26.299ZM462.647 64.835V0h27.395c2.8 0 5.357.578 7.67 1.735a18.94 18.94 0 0 1 6.027 4.748 20.342 20.342 0 0 1 4.018 6.575c.974 2.374 1.461 4.81 1.461 7.306 0 3.104-.608 6.026-1.826 8.766-1.157 2.74-2.831 5.053-5.022 6.94-2.131 1.887-4.658 3.135-7.58 3.744l15.889 25.02h-7.214L488.216 40.91h-19.177v23.925h-6.392Zm6.392-29.587h21.185c2.557 0 4.779-.7 6.667-2.1 1.887-1.4 3.348-3.227 4.383-5.479a17.69 17.69 0 0 0 1.552-7.305c0-2.618-.609-5.023-1.826-7.214-1.157-2.253-2.74-4.049-4.749-5.388-1.948-1.4-4.139-2.1-6.574-2.1h-20.638v29.586ZM548.696 65.291c-5.113 0-9.436-.913-12.967-2.74-3.531-1.825-6.331-4.26-8.401-7.304-2.07-3.105-3.591-6.606-4.566-10.502-.913-3.896-1.369-7.914-1.369-12.054V0h6.301v32.691c0 3.349.334 6.636 1.004 9.863.731 3.226 1.887 6.118 3.47 8.675 1.583 2.556 3.714 4.596 6.392 6.118 2.679 1.46 6.027 2.191 10.045 2.191 4.14 0 7.549-.76 10.227-2.282 2.74-1.583 4.871-3.653 6.393-6.21 1.582-2.557 2.709-5.418 3.378-8.584a47.933 47.933 0 0 0 1.005-9.77V0H576v32.691c0 4.323-.487 8.462-1.461 12.42-.974 3.957-2.557 7.427-4.749 10.41-2.13 2.983-4.931 5.357-8.401 7.122-3.47 1.766-7.701 2.648-12.693 2.648Z" fill="#fff"/></svg>