<svg width="27" height="27" fill="none" xmlns="http://www.w3.org/2000/svg"><path fill-rule="evenodd" clip-rule="evenodd" d="M13.42 8.453a5.229 5.229 0 0 1 5.228-5.23c3.214 0 5.244 2.924 5.244 5.778 0 6.464-4.922 13.953-13.954 13.953-2.768 0-5.346-.81-7.517-2.203a.5.5 0 0 1-.157-.68.45.45 0 0 1 .494-.36c1.999.236 4.014-.09 5.708-1.057a5.19 5.19 0 0 1-3.62-3.428.45.45 0 0 1 .513-.58l.087.016a5.174 5.174 0 0 1-2.278-4.292v-.06a.45.45 0 0 1 .668-.394c.145.08.295.153.45.217a5.165 5.165 0 0 1-1.08-3.168c0-.852.012-1.812.544-2.67a.45.45 0 0 1 .478-.202.5.5 0 0 1 .455.18 12.93 12.93 0 0 0 8.764 4.71 5.283 5.283 0 0 1-.027-.53ZM9.938 21.954c-2.006 0-3.904-.458-5.598-1.274 2.02-.063 4.002-.68 5.63-1.955a.45.45 0 0 0-.27-.804 4.279 4.279 0 0 1-3.718-2.303 5.294 5.294 0 0 0 1.546-.177.45.45 0 0 0-.029-.875 4.283 4.283 0 0 1-3.38-3.532c.509.188 1.056.298 1.626.317a.45.45 0 0 0 .264-.824 4.28 4.28 0 0 1-1.903-3.562c0-.623.015-1.161.16-1.64a13.92 13.92 0 0 0 9.75 4.704.5.5 0 0 0 .514-.611 4.229 4.229 0 0 1 4.118-5.195c2.505 0 4.244 2.306 4.244 4.778 0 6.034-4.589 12.953-12.954 12.953ZM26.468 5.68a9.468 9.468 0 0 1-2.714.744 4.741 4.741 0 0 0 2.078-2.617 9.44 9.44 0 0 1-3.002 1.147l1.279 3.175a9.613 9.613 0 0 0 2.358-2.446l.002-.003Z" fill="#fff"/></svg>