<svg width="27" height="27" fill="none" xmlns="http://www.w3.org/2000/svg"><path d="M25.001.003c-.349.018-.677.13-.97.257h-.003c-.296.131-1.704.79-3.843 1.789l-7.668 3.595-10.91 5.118.064-.027s-.373.136-.762.434a2.227 2.227 0 0 0-.609.655c-.19.312-.345.79-.288 1.283.093.836.58 1.337.93 1.613.352.28.689.41.689.41h.008l5.072 1.902c.227.813 1.546 5.638 1.862 6.749.187.664.37 1.08.596 1.396.11.162.24.298.394.406a1.116 1.116 0 0 0 .256.122l-.053-.013c.016.004.028.018.04.022.041.014.07.018.122.027.804.271 1.449-.284 1.449-.284l.036-.032 2.995-3.035 5.019 4.286.113.055c1.047.51 2.106.225 2.666-.276.564-.506.783-1.152.783-1.152l.037-.104 3.878-22.12c.11-.547.138-1.057.017-1.554-.122-.497-.435-.962-.812-1.21a1.79 1.79 0 0 0-1.108-.312Zm-.105 2.371c-.004.072.008.063-.02.203v.014l-3.843 21.89c-.016.032-.044.1-.121.167-.082.073-.146.118-.483-.031l-6.14-5.24-3.707 3.763.778-5.539L21.39 7.194c.414-.43.276-.52.276-.52.029-.524-.625-.153-.625-.153L8.395 15.244l-.005-.023-6.061-2.272v-.005c-.004 0-.012-.004-.017-.004.005 0 .033-.014.033-.014l.032-.018.033-.013s5.412-2.54 10.914-5.118c2.755-1.292 5.53-2.593 7.665-3.596 2.134-.998 3.712-1.73 3.802-1.77.085-.037.044-.037.105-.037Z" fill="#fff"/></svg>