<svg width="204" height="18" fill="none" xmlns="http://www.w3.org/2000/svg"><path d="M10.965 1.005h6.576L9.525 17.013h-5.04L.885 1.005h6.072l.624 5.04c.096.744.144 1.536.144 2.376 0 .696-.024 1.2-.096 2.136l.24.024c.24-2.016.624-3.552 1.248-5.064l1.848-4.512ZM21.917 1.005h5.88L25.83 17.013h-5.88l1.968-16.008ZM33.77 1.005h10.513l-.504 4.176H39.05l-.216 1.752h4.32l-.48 3.96h-4.32l-.216 1.824h4.896l-.528 4.296H31.803L33.77 1.005ZM66.479 1.005h6.576l-7.68 16.008h-4.896l-.72-5.16a19.536 19.536 0 0 1-.192-2.64c0-.264 0-.36.024-.672l-.216-.024-.072.264c-.192.936-.432 1.848-.648 2.4l-.528 1.44-1.632 4.392H51.31L48.095 1.005h6l.528 6.216c.048.696.096 1.416.096 2.112 0 .432-.024.672-.048 1.272h.24l.072-.456c.168-1.296.504-2.52 1.008-3.936l1.944-5.208h4.776l.672 6.096c.12 1.104.168 1.872.168 2.88 0 .168 0 .312-.024.648h.24c.24-2.208.36-2.76.984-4.536l1.728-5.088ZM92.433 12.141h-2.208l-.6 4.872h-5.808l1.968-16.008h6.672c2.184 0 3.504.36 4.608 1.224 1.272 1.008 2.016 2.568 2.016 4.248 0 1.512-.648 3.072-1.68 4.08-1.176 1.128-2.592 1.584-4.968 1.584Zm-.768-6.96h-.6l-.36 2.976h.528c1.464 0 2.208-.576 2.208-1.704 0-.936-.456-1.272-1.776-1.272ZM116.17 9.813c-.72.576-1.176.768-2.376.936l3.48 6.264h-6.288l-1.44-3.864c-.24-.672-.504-1.536-.624-2.136l-.168.024c.024.528.024.744.024 1.176 0 .72-.048 1.512-.12 2.112l-.312 2.688h-5.808l1.968-16.008h6.36c2.616 0 3.84.336 5.04 1.296a5.253 5.253 0 0 1 1.872 3.984c0 1.392-.6 2.712-1.608 3.528Zm-5.928-4.512h-.456l-.36 2.88h.48c1.344 0 2.184-.624 2.184-1.584 0-.888-.576-1.296-1.848-1.296ZM124.094 1.005h10.512l-.504 4.176h-4.728l-.216 1.752h4.32l-.48 3.96h-4.32l-.216 1.824h4.896l-.528 4.296h-10.704l1.968-16.008ZM150.466 1.75c.24.12.576.287 1.008.527l-2.136 4.248c-1.008-.912-2.256-1.44-3.504-1.44-.624 0-1.104.36-1.104.84 0 .504.288.672 1.752 1.032 1.104.288 2.016.648 2.592 1.056 1.08.72 1.752 2.112 1.752 3.576 0 3.216-3.12 5.832-6.984 5.832-1.488 0-3.288-.432-4.848-1.152-.336-.168-.84-.408-1.488-.768l2.16-4.32c.96 1.176 2.496 1.896 4.008 1.896.816 0 1.344-.36 1.344-.936 0-.552-.456-.888-1.512-1.128-1.104-.216-1.704-.408-2.28-.72-1.512-.744-2.304-2.088-2.304-3.936 0-3.192 2.928-5.736 6.576-5.736 1.632 0 3.36.384 4.968 1.128ZM164.732 14.877h-3.936l-.768 2.136h-6.24l7.392-16.008h6.624l2.976 16.008h-5.928l-.12-2.136Zm-1.512-6.552-1.08 2.904h2.208l-.24-2.904a13.014 13.014 0 0 1-.048-1.128c0-.576.024-.744.072-1.272h-.192c-.216.936-.36 1.464-.72 2.4ZM177.116 1.005h5.88l-1.368 11.184 4.92-.144-.6 4.968h-10.8l1.968-16.008ZM192.603 1.005h10.512l-.504 4.176h-4.728l-.216 1.752h4.32l-.48 3.96h-4.32l-.216 1.824h4.896l-.528 4.296h-10.704l1.968-16.008Z" fill="#000"/></svg>